<svg xmlns="http://www.w3.org/2000/svg" width="1180" height="600" viewBox="0 0 1180 600">
<style>
text{font-family:-apple-system,BlinkMacSystemFont,'Segoe UI',sans-serif;fill:#222}
.axis{stroke:#444;stroke-width:1}
.grid{stroke:#ddd;stroke-width:1}
.bar{stroke:#fff;stroke-width:1}
.tick{font-size:11px}
.label{font-size:12px}
.title{font-size:18px;font-weight:600}
</style>
<text class="title" x="70" y="26">Open regressions by introduced version</text>
<line class="grid" x1="70" y1="460" x2="1030" y2="460"/>
<text class="tick" x="62" y="460" text-anchor="end" dominant-baseline="middle">0</text>
<line class="grid" x1="70" y1="365" x2="1030" y2="365"/>
<text class="tick" x="62" y="365" text-anchor="end" dominant-baseline="middle">20</text>
<line class="grid" x1="70" y1="269" x2="1030" y2="269"/>
<text class="tick" x="62" y="269" text-anchor="end" dominant-baseline="middle">40</text>
<line class="grid" x1="70" y1="174" x2="1030" y2="174"/>
<text class="tick" x="62" y="174" text-anchor="end" dominant-baseline="middle">60</text>
<line class="grid" x1="70" y1="78" x2="1030" y2="78"/>
<text class="tick" x="62" y="78" text-anchor="end" dominant-baseline="middle">80</text>
<line class="axis" x1="70" y1="460" x2="1030" y2="460"/>
<line class="axis" x1="70" y1="40" x2="70" y2="460"/>
<rect class="bar" x="75.60" y="450.45" width="28.80" height="9.55" fill="#488f31"/>
<text class="tick" transform="translate(75.60,478) rotate(45)" text-anchor="start">2.3.0</text>
<rect class="bar" x="115.60" y="450.45" width="28.80" height="9.55" fill="#488f31"/>
<rect class="bar" x="115.60" y="445.68" width="28.80" height="4.77" fill="#599639"/>
<text class="tick" transform="translate(115.60,478) rotate(45)" text-anchor="start">2.3.2</text>
<rect class="bar" x="155.60" y="450.45" width="28.80" height="9.55" fill="#488f31"/>
<rect class="bar" x="155.60" y="445.68" width="28.80" height="4.77" fill="#599639"/>
<rect class="bar" x="155.60" y="407.50" width="28.80" height="38.18" fill="#699e41"/>
<text class="tick" transform="translate(155.60,478) rotate(45)" text-anchor="start">2.5.1</text>
<rect class="bar" x="195.60" y="450.45" width="28.80" height="9.55" fill="#488f31"/>
<rect class="bar" x="195.60" y="445.68" width="28.80" height="4.77" fill="#599639"/>
<rect class="bar" x="195.60" y="407.50" width="28.80" height="38.18" fill="#699e41"/>
<rect class="bar" x="195.60" y="340.68" width="28.80" height="66.82" fill="#78a549"/>
<text class="tick" transform="translate(195.60,478) rotate(45)" text-anchor="start">2.5.2</text>
<rect class="bar" x="235.60" y="450.45" width="28.80" height="9.55" fill="#488f31"/>
<rect class="bar" x="235.60" y="445.68" width="28.80" height="4.77" fill="#599639"/>
<rect class="bar" x="235.60" y="407.50" width="28.80" height="38.18" fill="#699e41"/>
<rect class="bar" x="235.60" y="340.68" width="28.80" height="66.82" fill="#78a549"/>
<rect class="bar" x="235.60" y="269.09" width="28.80" height="71.59" fill="#87ac51"/>
<text class="tick" transform="translate(235.60,478) rotate(45)" text-anchor="start">2.5.3</text>
<rect class="bar" x="275.60" y="450.45" width="28.80" height="9.55" fill="#488f31"/>
<rect class="bar" x="275.60" y="412.27" width="28.80" height="38.18" fill="#699e41"/>
<rect class="bar" x="275.60" y="378.86" width="28.80" height="33.41" fill="#78a549"/>
<rect class="bar" x="275.60" y="345.45" width="28.80" height="33.41" fill="#87ac51"/>
<rect class="bar" x="275.60" y="187.95" width="28.80" height="157.50" fill="#96b459"/>
<text class="tick" transform="translate(275.60,478) rotate(45)" text-anchor="start">2.5.4</text>
<rect class="bar" x="315.60" y="450.45" width="28.80" height="9.55" fill="#488f31"/>
<rect class="bar" x="315.60" y="412.27" width="28.80" height="38.18" fill="#699e41"/>
<rect class="bar" x="315.60" y="378.86" width="28.80" height="33.41" fill="#78a549"/>
<rect class="bar" x="315.60" y="345.45" width="28.80" height="33.41" fill="#87ac51"/>
<rect class="bar" x="315.60" y="192.73" width="28.80" height="152.73" fill="#96b459"/>
<rect class="bar" x="315.60" y="187.95" width="28.80" height="4.77" fill="#a5bb61"/>
<text class="tick" transform="translate(315.60,478) rotate(45)" text-anchor="start">2.5.4.1</text>
<rect class="bar" x="355.60" y="450.45" width="28.80" height="9.55" fill="#488f31"/>
<rect class="bar" x="355.60" y="412.27" width="28.80" height="38.18" fill="#699e41"/>
<rect class="bar" x="355.60" y="378.86" width="28.80" height="33.41" fill="#78a549"/>
<rect class="bar" x="355.60" y="345.45" width="28.80" height="33.41" fill="#87ac51"/>
<rect class="bar" x="355.60" y="197.50" width="28.80" height="147.95" fill="#96b459"/>
<text class="tick" transform="translate(355.60,478) rotate(45)" text-anchor="start">2.5.4.2</text>
<rect class="bar" x="395.60" y="450.45" width="28.80" height="9.55" fill="#488f31"/>
<rect class="bar" x="395.60" y="417.05" width="28.80" height="33.41" fill="#699e41"/>
<rect class="bar" x="395.60" y="393.18" width="28.80" height="23.86" fill="#78a549"/>
<rect class="bar" x="395.60" y="364.55" width="28.80" height="28.64" fill="#87ac51"/>
<rect class="bar" x="395.60" y="278.64" width="28.80" height="85.91" fill="#96b459"/>
<rect class="bar" x="395.60" y="140.23" width="28.80" height="138.41" fill="#c3c971"/>
<text class="tick" transform="translate(395.60,478) rotate(45)" text-anchor="start">2.6.0</text>
<rect class="bar" x="435.60" y="450.45" width="28.80" height="9.55" fill="#488f31"/>
<rect class="bar" x="435.60" y="417.05" width="28.80" height="33.41" fill="#699e41"/>
<rect class="bar" x="435.60" y="397.95" width="28.80" height="19.09" fill="#78a549"/>
<rect class="bar" x="435.60" y="369.32" width="28.80" height="28.64" fill="#87ac51"/>
<rect class="bar" x="435.60" y="288.18" width="28.80" height="81.14" fill="#96b459"/>
<rect class="bar" x="435.60" y="154.55" width="28.80" height="133.64" fill="#c3c971"/>
<text class="tick" transform="translate(435.60,478) rotate(45)" text-anchor="start">2.6.0.1</text>
<rect class="bar" x="475.60" y="455.23" width="28.80" height="4.77" fill="#488f31"/>
<rect class="bar" x="475.60" y="431.36" width="28.80" height="23.86" fill="#699e41"/>
<rect class="bar" x="475.60" y="421.82" width="28.80" height="9.55" fill="#78a549"/>
<rect class="bar" x="475.60" y="402.73" width="28.80" height="19.09" fill="#87ac51"/>
<rect class="bar" x="475.60" y="355.00" width="28.80" height="47.73" fill="#96b459"/>
<rect class="bar" x="475.60" y="264.32" width="28.80" height="90.68" fill="#c3c971"/>
<rect class="bar" x="475.60" y="116.36" width="28.80" height="147.95" fill="#e1d881"/>
<text class="tick" transform="translate(475.60,478) rotate(45)" text-anchor="start">2.6.1</text>
<rect class="bar" x="515.60" y="455.23" width="28.80" height="4.77" fill="#488f31"/>
<rect class="bar" x="515.60" y="431.36" width="28.80" height="23.86" fill="#699e41"/>
<rect class="bar" x="515.60" y="421.82" width="28.80" height="9.55" fill="#78a549"/>
<rect class="bar" x="515.60" y="402.73" width="28.80" height="19.09" fill="#87ac51"/>
<rect class="bar" x="515.60" y="355.00" width="28.80" height="47.73" fill="#96b459"/>
<rect class="bar" x="515.60" y="269.09" width="28.80" height="85.91" fill="#c3c971"/>
<rect class="bar" x="515.60" y="121.14" width="28.80" height="147.95" fill="#e1d881"/>
<text class="tick" transform="translate(515.60,478) rotate(45)" text-anchor="start">2.6.1.2</text>
<rect class="bar" x="555.60" y="445.68" width="28.80" height="14.32" fill="#699e41"/>
<rect class="bar" x="555.60" y="440.91" width="28.80" height="4.77" fill="#78a549"/>
<rect class="bar" x="555.60" y="421.82" width="28.80" height="19.09" fill="#87ac51"/>
<rect class="bar" x="555.60" y="383.64" width="28.80" height="38.18" fill="#96b459"/>
<rect class="bar" x="555.60" y="316.82" width="28.80" height="66.82" fill="#c3c971"/>
<rect class="bar" x="555.60" y="216.59" width="28.80" height="100.23" fill="#e1d881"/>
<rect class="bar" x="555.60" y="40.00" width="28.80" height="176.59" fill="#ffe692"/>
<text class="tick" transform="translate(555.60,478) rotate(45)" text-anchor="start">2.6.2</text>
<rect class="bar" x="595.60" y="445.68" width="28.80" height="14.32" fill="#699e41"/>
<rect class="bar" x="595.60" y="426.59" width="28.80" height="19.09" fill="#87ac51"/>
<rect class="bar" x="595.60" y="388.41" width="28.80" height="38.18" fill="#96b459"/>
<rect class="bar" x="595.60" y="321.59" width="28.80" height="66.82" fill="#c3c971"/>
<rect class="bar" x="595.60" y="245.23" width="28.80" height="76.36" fill="#e1d881"/>
<rect class="bar" x="595.60" y="106.82" width="28.80" height="138.41" fill="#ffe692"/>
<text class="tick" transform="translate(595.60,478) rotate(45)" text-anchor="start">2.6.2.1</text>
<rect class="bar" x="635.60" y="445.68" width="28.80" height="14.32" fill="#699e41"/>
<rect class="bar" x="635.60" y="426.59" width="28.80" height="19.09" fill="#87ac51"/>
<rect class="bar" x="635.60" y="388.41" width="28.80" height="38.18" fill="#96b459"/>
<rect class="bar" x="635.60" y="321.59" width="28.80" height="66.82" fill="#c3c971"/>
<rect class="bar" x="635.60" y="254.77" width="28.80" height="66.82" fill="#e1d881"/>
<rect class="bar" x="635.60" y="140.23" width="28.80" height="114.55" fill="#ffe692"/>
<rect class="bar" x="635.60" y="135.45" width="28.80" height="4.77" fill="#fccd89"/>
<text class="tick" transform="translate(635.60,478) rotate(45)" text-anchor="start">2.6.2.2</text>
<rect class="bar" x="675.60" y="445.68" width="28.80" height="14.32" fill="#699e41"/>
<rect class="bar" x="675.60" y="426.59" width="28.80" height="19.09" fill="#87ac51"/>
<rect class="bar" x="675.60" y="388.41" width="28.80" height="38.18" fill="#96b459"/>
<rect class="bar" x="675.60" y="331.14" width="28.80" height="57.27" fill="#c3c971"/>
<rect class="bar" x="675.60" y="292.95" width="28.80" height="38.18" fill="#e1d881"/>
<rect class="bar" x="675.60" y="221.36" width="28.80" height="71.59" fill="#ffe692"/>
<rect class="bar" x="675.60" y="216.59" width="28.80" height="4.77" fill="#fccd89"/>
<rect class="bar" x="675.60" y="192.73" width="28.80" height="23.86" fill="#fac084"/>
<text class="tick" transform="translate(675.60,478) rotate(45)" text-anchor="start">2.6.3</text>
<rect class="bar" x="715.60" y="445.68" width="28.80" height="14.32" fill="#699e41"/>
<rect class="bar" x="715.60" y="426.59" width="28.80" height="19.09" fill="#87ac51"/>
<rect class="bar" x="715.60" y="388.41" width="28.80" height="38.18" fill="#96b459"/>
<rect class="bar" x="715.60" y="335.91" width="28.80" height="52.50" fill="#c3c971"/>
<rect class="bar" x="715.60" y="302.50" width="28.80" height="33.41" fill="#e1d881"/>
<rect class="bar" x="715.60" y="240.45" width="28.80" height="62.05" fill="#ffe692"/>
<rect class="bar" x="715.60" y="235.68" width="28.80" height="4.77" fill="#fccd89"/>
<rect class="bar" x="715.60" y="226.14" width="28.80" height="9.55" fill="#fac084"/>
<rect class="bar" x="715.60" y="159.32" width="28.80" height="66.82" fill="#f8b47f"/>
<text class="tick" transform="translate(715.60,478) rotate(45)" text-anchor="start">2.6.4</text>
<rect class="bar" x="755.60" y="450.45" width="28.80" height="9.55" fill="#699e41"/>
<rect class="bar" x="755.60" y="431.36" width="28.80" height="19.09" fill="#87ac51"/>
<rect class="bar" x="755.60" y="393.18" width="28.80" height="38.18" fill="#96b459"/>
<rect class="bar" x="755.60" y="340.68" width="28.80" height="52.50" fill="#c3c971"/>
<rect class="bar" x="755.60" y="307.27" width="28.80" height="33.41" fill="#e1d881"/>
<rect class="bar" x="755.60" y="245.23" width="28.80" height="62.05" fill="#ffe692"/>
<rect class="bar" x="755.60" y="240.45" width="28.80" height="4.77" fill="#fccd89"/>
<rect class="bar" x="755.60" y="230.91" width="28.80" height="9.55" fill="#fac084"/>
<rect class="bar" x="755.60" y="173.64" width="28.80" height="57.27" fill="#f8b47f"/>
<text class="tick" transform="translate(755.60,478) rotate(45)" text-anchor="start">2.6.4.1</text>
<rect class="bar" x="795.60" y="450.45" width="28.80" height="9.55" fill="#699e41"/>
<rect class="bar" x="795.60" y="431.36" width="28.80" height="19.09" fill="#87ac51"/>
<rect class="bar" x="795.60" y="393.18" width="28.80" height="38.18" fill="#96b459"/>
<rect class="bar" x="795.60" y="340.68" width="28.80" height="52.50" fill="#c3c971"/>
<rect class="bar" x="795.60" y="312.05" width="28.80" height="28.64" fill="#e1d881"/>
<rect class="bar" x="795.60" y="250.00" width="28.80" height="62.05" fill="#ffe692"/>
<rect class="bar" x="795.60" y="245.23" width="28.80" height="4.77" fill="#fccd89"/>
<rect class="bar" x="795.60" y="235.68" width="28.80" height="9.55" fill="#fac084"/>
<rect class="bar" x="795.60" y="192.73" width="28.80" height="42.95" fill="#f8b47f"/>
<rect class="bar" x="795.60" y="173.64" width="28.80" height="19.09" fill="#f39a76"/>
<text class="tick" transform="translate(795.60,478) rotate(45)" text-anchor="start">2.6.4.2</text>
<rect class="bar" x="835.60" y="450.45" width="28.80" height="9.55" fill="#699e41"/>
<rect class="bar" x="835.60" y="431.36" width="28.80" height="19.09" fill="#87ac51"/>
<rect class="bar" x="835.60" y="393.18" width="28.80" height="38.18" fill="#96b459"/>
<rect class="bar" x="835.60" y="340.68" width="28.80" height="52.50" fill="#c3c971"/>
<rect class="bar" x="835.60" y="312.05" width="28.80" height="28.64" fill="#e1d881"/>
<rect class="bar" x="835.60" y="250.00" width="28.80" height="62.05" fill="#ffe692"/>
<rect class="bar" x="835.60" y="245.23" width="28.80" height="4.77" fill="#fccd89"/>
<rect class="bar" x="835.60" y="235.68" width="28.80" height="9.55" fill="#fac084"/>
<rect class="bar" x="835.60" y="197.50" width="28.80" height="38.18" fill="#f8b47f"/>
<rect class="bar" x="835.60" y="183.18" width="28.80" height="14.32" fill="#f39a76"/>
<text class="tick" transform="translate(835.60,478) rotate(45)" text-anchor="start">2.6.4.3</text>
<rect class="bar" x="875.60" y="450.45" width="28.80" height="9.55" fill="#699e41"/>
<rect class="bar" x="875.60" y="431.36" width="28.80" height="19.09" fill="#87ac51"/>
<rect class="bar" x="875.60" y="397.95" width="28.80" height="33.41" fill="#96b459"/>
<rect class="bar" x="875.60" y="364.55" width="28.80" height="33.41" fill="#c3c971"/>
<rect class="bar" x="875.60" y="345.45" width="28.80" height="19.09" fill="#e1d881"/>
<rect class="bar" x="875.60" y="302.50" width="28.80" height="42.95" fill="#ffe692"/>
<rect class="bar" x="875.60" y="297.73" width="28.80" height="4.77" fill="#fccd89"/>
<rect class="bar" x="875.60" y="292.95" width="28.80" height="4.77" fill="#fac084"/>
<rect class="bar" x="875.60" y="269.09" width="28.80" height="23.86" fill="#f8b47f"/>
<rect class="bar" x="875.60" y="254.77" width="28.80" height="14.32" fill="#f39a76"/>
<rect class="bar" x="875.60" y="207.05" width="28.80" height="47.73" fill="#ed7f6d"/>
<text class="tick" transform="translate(875.60,478) rotate(45)" text-anchor="start">2.7.0</text>
<rect class="bar" x="915.60" y="450.45" width="28.80" height="9.55" fill="#699e41"/>
<rect class="bar" x="915.60" y="431.36" width="28.80" height="19.09" fill="#87ac51"/>
<rect class="bar" x="915.60" y="397.95" width="28.80" height="33.41" fill="#96b459"/>
<rect class="bar" x="915.60" y="364.55" width="28.80" height="33.41" fill="#c3c971"/>
<rect class="bar" x="915.60" y="345.45" width="28.80" height="19.09" fill="#e1d881"/>
<rect class="bar" x="915.60" y="307.27" width="28.80" height="38.18" fill="#ffe692"/>
<rect class="bar" x="915.60" y="302.50" width="28.80" height="4.77" fill="#fccd89"/>
<rect class="bar" x="915.60" y="297.73" width="28.80" height="4.77" fill="#fac084"/>
<rect class="bar" x="915.60" y="273.86" width="28.80" height="23.86" fill="#f8b47f"/>
<rect class="bar" x="915.60" y="264.32" width="28.80" height="9.55" fill="#f39a76"/>
<rect class="bar" x="915.60" y="235.68" width="28.80" height="28.64" fill="#ed7f6d"/>
<text class="tick" transform="translate(915.60,478) rotate(45)" text-anchor="start">2.7.0.1</text>
<rect class="bar" x="955.60" y="450.45" width="28.80" height="9.55" fill="#699e41"/>
<rect class="bar" x="955.60" y="431.36" width="28.80" height="19.09" fill="#87ac51"/>
<rect class="bar" x="955.60" y="397.95" width="28.80" height="33.41" fill="#96b459"/>
<rect class="bar" x="955.60" y="369.32" width="28.80" height="28.64" fill="#c3c971"/>
<rect class="bar" x="955.60" y="364.55" width="28.80" height="4.77" fill="#e1d881"/>
<rect class="bar" x="955.60" y="335.91" width="28.80" height="28.64" fill="#ffe692"/>
<rect class="bar" x="955.60" y="321.59" width="28.80" height="14.32" fill="#f8b47f"/>
<rect class="bar" x="955.60" y="316.82" width="28.80" height="4.77" fill="#f39a76"/>
<rect class="bar" x="955.60" y="278.64" width="28.80" height="38.18" fill="#e66364"/>
<text class="tick" transform="translate(955.60,478) rotate(45)" text-anchor="start">2.8.0</text>
<rect class="bar" x="995.60" y="450.45" width="28.80" height="9.55" fill="#699e41"/>
<rect class="bar" x="995.60" y="431.36" width="28.80" height="19.09" fill="#87ac51"/>
<rect class="bar" x="995.60" y="402.73" width="28.80" height="28.64" fill="#96b459"/>
<rect class="bar" x="995.60" y="383.64" width="28.80" height="19.09" fill="#c3c971"/>
<rect class="bar" x="995.60" y="364.55" width="28.80" height="19.09" fill="#ffe692"/>
<rect class="bar" x="995.60" y="359.77" width="28.80" height="4.77" fill="#f8b47f"/>
<rect class="bar" x="995.60" y="355.00" width="28.80" height="4.77" fill="#f39a76"/>
<rect class="bar" x="995.60" y="350.23" width="28.80" height="4.77" fill="#e66364"/>
<text class="tick" transform="translate(995.60,478) rotate(45)" text-anchor="start">2.9.0</text>
<text class="label" x="22" y="250" text-anchor="middle" transform="rotate(-90 22 250)">Open regressions</text>
<rect x="1058" y="40" width="12" height="12" fill="#e2535f" stroke="#fff"/>
<text class="label" x="1076" y="50">2.9.0</text>
<rect x="1058" y="58" width="12" height="12" fill="#e66364" stroke="#fff"/>
<text class="label" x="1076" y="68">2.8.0</text>
<rect x="1058" y="76" width="12" height="12" fill="#e97268" stroke="#fff"/>
<text class="label" x="1076" y="86">2.7.0.1</text>
<rect x="1058" y="94" width="12" height="12" fill="#ed7f6d" stroke="#fff"/>
<text class="label" x="1076" y="104">2.7.0</text>
<rect x="1058" y="112" width="12" height="12" fill="#f08d71" stroke="#fff"/>
<text class="label" x="1076" y="122">2.6.4.3</text>
<rect x="1058" y="130" width="12" height="12" fill="#f39a76" stroke="#fff"/>
<text class="label" x="1076" y="140">2.6.4.2</text>
<rect x="1058" y="148" width="12" height="12" fill="#f5a77b" stroke="#fff"/>
<text class="label" x="1076" y="158">2.6.4.1</text>
<rect x="1058" y="166" width="12" height="12" fill="#f8b47f" stroke="#fff"/>
<text class="label" x="1076" y="176">2.6.4</text>
<rect x="1058" y="184" width="12" height="12" fill="#fac084" stroke="#fff"/>
<text class="label" x="1076" y="194">2.6.3</text>
<rect x="1058" y="202" width="12" height="12" fill="#fccd89" stroke="#fff"/>
<text class="label" x="1076" y="212">2.6.2.2</text>
<rect x="1058" y="220" width="12" height="12" fill="#fed98d" stroke="#fff"/>
<text class="label" x="1076" y="230">2.6.2.1</text>
<rect x="1058" y="238" width="12" height="12" fill="#ffe692" stroke="#fff"/>
<text class="label" x="1076" y="248">2.6.2</text>
<rect x="1058" y="256" width="12" height="12" fill="#f0df8a" stroke="#fff"/>
<text class="label" x="1076" y="266">2.6.1.2</text>
<rect x="1058" y="274" width="12" height="12" fill="#e1d881" stroke="#fff"/>
<text class="label" x="1076" y="284">2.6.1</text>
<rect x="1058" y="292" width="12" height="12" fill="#d2d079" stroke="#fff"/>
<text class="label" x="1076" y="302">2.6.0.1</text>
<rect x="1058" y="310" width="12" height="12" fill="#c3c971" stroke="#fff"/>
<text class="label" x="1076" y="320">2.6.0</text>
<rect x="1058" y="328" width="12" height="12" fill="#b4c269" stroke="#fff"/>
<text class="label" x="1076" y="338">2.5.4.2</text>
<rect x="1058" y="346" width="12" height="12" fill="#a5bb61" stroke="#fff"/>
<text class="label" x="1076" y="356">2.5.4.1</text>
<rect x="1058" y="364" width="12" height="12" fill="#96b459" stroke="#fff"/>
<text class="label" x="1076" y="374">2.5.4</text>
<rect x="1058" y="382" width="12" height="12" fill="#87ac51" stroke="#fff"/>
<text class="label" x="1076" y="392">2.5.3</text>
<rect x="1058" y="400" width="12" height="12" fill="#78a549" stroke="#fff"/>
<text class="label" x="1076" y="410">2.5.2</text>
<rect x="1058" y="418" width="12" height="12" fill="#699e41" stroke="#fff"/>
<text class="label" x="1076" y="428">2.5.1</text>
<rect x="1058" y="436" width="12" height="12" fill="#599639" stroke="#fff"/>
<text class="label" x="1076" y="446">2.3.2</text>
<rect x="1058" y="454" width="12" height="12" fill="#488f31" stroke="#fff"/>
<text class="label" x="1076" y="464">2.3.0</text>
</svg>
